<mxfile host="app.diagrams.net" modified="2022-05-08T02:14:50.959Z" agent="5.0 (Windows NT 10.0; Win64; x64) AppleWebKit/537.36 (KHTML, like Gecko) Chrome/99.0.4844.84 Safari/537.36 OPR/85.0.4341.72" etag="q02pTLY3FBoaDSbkl-hp" version="18.0.2" type="github">
  <diagram id="IybJoX6XEsmByi1HjrsY" name="Page-1">
    <mxGraphModel dx="950" dy="522" grid="1" gridSize="10" guides="1" tooltips="1" connect="1" arrows="1" fold="1" page="1" pageScale="1" pageWidth="3300" pageHeight="4681" math="0" shadow="0">
      <root>
        <mxCell id="0" />
        <mxCell id="1" parent="0" />
        <mxCell id="L7a83B9xqDgA09aWqaU--1" value="Start" style="rounded=1;whiteSpace=wrap;html=1;" vertex="1" parent="1">
          <mxGeometry x="1080" y="600" width="120" height="60" as="geometry" />
        </mxCell>
        <mxCell id="L7a83B9xqDgA09aWqaU--15" style="edgeStyle=orthogonalEdgeStyle;rounded=0;orthogonalLoop=1;jettySize=auto;html=1;exitX=0.5;exitY=1;exitDx=0;exitDy=0;entryX=0.5;entryY=0;entryDx=0;entryDy=0;" edge="1" parent="1" source="L7a83B9xqDgA09aWqaU--2" target="L7a83B9xqDgA09aWqaU--4">
          <mxGeometry relative="1" as="geometry" />
        </mxCell>
        <mxCell id="L7a83B9xqDgA09aWqaU--16" style="edgeStyle=orthogonalEdgeStyle;rounded=0;orthogonalLoop=1;jettySize=auto;html=1;exitX=0.5;exitY=1;exitDx=0;exitDy=0;entryX=0.5;entryY=0;entryDx=0;entryDy=0;" edge="1" parent="1" source="L7a83B9xqDgA09aWqaU--2" target="L7a83B9xqDgA09aWqaU--3">
          <mxGeometry relative="1" as="geometry" />
        </mxCell>
        <mxCell id="L7a83B9xqDgA09aWqaU--17" style="edgeStyle=orthogonalEdgeStyle;rounded=0;orthogonalLoop=1;jettySize=auto;html=1;exitX=0.5;exitY=1;exitDx=0;exitDy=0;" edge="1" parent="1" source="L7a83B9xqDgA09aWqaU--2" target="L7a83B9xqDgA09aWqaU--5">
          <mxGeometry relative="1" as="geometry" />
        </mxCell>
        <mxCell id="L7a83B9xqDgA09aWqaU--2" value="Start threads" style="rounded=1;whiteSpace=wrap;html=1;" vertex="1" parent="1">
          <mxGeometry x="1080" y="700" width="120" height="60" as="geometry" />
        </mxCell>
        <mxCell id="L7a83B9xqDgA09aWqaU--18" style="edgeStyle=orthogonalEdgeStyle;rounded=0;orthogonalLoop=1;jettySize=auto;html=1;exitX=0.5;exitY=1;exitDx=0;exitDy=0;entryX=0.5;entryY=0;entryDx=0;entryDy=0;" edge="1" parent="1" source="L7a83B9xqDgA09aWqaU--3" target="L7a83B9xqDgA09aWqaU--6">
          <mxGeometry relative="1" as="geometry" />
        </mxCell>
        <mxCell id="L7a83B9xqDgA09aWqaU--3" value="Manual thread" style="rounded=1;whiteSpace=wrap;html=1;" vertex="1" parent="1">
          <mxGeometry x="880" y="810" width="120" height="60" as="geometry" />
        </mxCell>
        <mxCell id="L7a83B9xqDgA09aWqaU--20" style="edgeStyle=orthogonalEdgeStyle;rounded=0;orthogonalLoop=1;jettySize=auto;html=1;exitX=0.5;exitY=1;exitDx=0;exitDy=0;entryX=0.5;entryY=0;entryDx=0;entryDy=0;" edge="1" parent="1" source="L7a83B9xqDgA09aWqaU--4" target="L7a83B9xqDgA09aWqaU--8">
          <mxGeometry relative="1" as="geometry" />
        </mxCell>
        <mxCell id="L7a83B9xqDgA09aWqaU--4" value="Auto thread" style="rounded=1;whiteSpace=wrap;html=1;" vertex="1" parent="1">
          <mxGeometry x="1080" y="810" width="120" height="60" as="geometry" />
        </mxCell>
        <mxCell id="L7a83B9xqDgA09aWqaU--25" style="edgeStyle=orthogonalEdgeStyle;rounded=0;orthogonalLoop=1;jettySize=auto;html=1;exitX=0.5;exitY=1;exitDx=0;exitDy=0;entryX=0.5;entryY=0;entryDx=0;entryDy=0;" edge="1" parent="1" source="L7a83B9xqDgA09aWqaU--5" target="L7a83B9xqDgA09aWqaU--11">
          <mxGeometry relative="1" as="geometry" />
        </mxCell>
        <mxCell id="L7a83B9xqDgA09aWqaU--5" value="Server communication thread" style="rounded=1;whiteSpace=wrap;html=1;" vertex="1" parent="1">
          <mxGeometry x="1290" y="810" width="170" height="60" as="geometry" />
        </mxCell>
        <mxCell id="L7a83B9xqDgA09aWqaU--19" style="edgeStyle=orthogonalEdgeStyle;rounded=0;orthogonalLoop=1;jettySize=auto;html=1;exitX=0.5;exitY=1;exitDx=0;exitDy=0;entryX=0;entryY=0.5;entryDx=0;entryDy=0;" edge="1" parent="1" source="L7a83B9xqDgA09aWqaU--6" target="L7a83B9xqDgA09aWqaU--3">
          <mxGeometry relative="1" as="geometry" />
        </mxCell>
        <mxCell id="L7a83B9xqDgA09aWqaU--6" value="Output corresponding commands: forward, backward, lefet, right, take checkpoint" style="rounded=1;whiteSpace=wrap;html=1;" vertex="1" parent="1">
          <mxGeometry x="880" y="910" width="120" height="60" as="geometry" />
        </mxCell>
        <mxCell id="L7a83B9xqDgA09aWqaU--21" style="edgeStyle=orthogonalEdgeStyle;rounded=0;orthogonalLoop=1;jettySize=auto;html=1;exitX=0.5;exitY=1;exitDx=0;exitDy=0;entryX=0.5;entryY=0;entryDx=0;entryDy=0;" edge="1" parent="1" source="L7a83B9xqDgA09aWqaU--8" target="L7a83B9xqDgA09aWqaU--9">
          <mxGeometry relative="1" as="geometry" />
        </mxCell>
        <mxCell id="L7a83B9xqDgA09aWqaU--28" style="edgeStyle=orthogonalEdgeStyle;rounded=0;orthogonalLoop=1;jettySize=auto;html=1;exitX=1;exitY=0.5;exitDx=0;exitDy=0;entryX=1;entryY=0.5;entryDx=0;entryDy=0;" edge="1" parent="1" source="L7a83B9xqDgA09aWqaU--8" target="L7a83B9xqDgA09aWqaU--4">
          <mxGeometry relative="1" as="geometry">
            <Array as="points">
              <mxPoint x="1230" y="940" />
              <mxPoint x="1230" y="840" />
            </Array>
          </mxGeometry>
        </mxCell>
        <mxCell id="L7a83B9xqDgA09aWqaU--8" value="Start" style="rhombus;whiteSpace=wrap;html=1;" vertex="1" parent="1">
          <mxGeometry x="1090" y="900" width="100" height="80" as="geometry" />
        </mxCell>
        <mxCell id="L7a83B9xqDgA09aWqaU--22" style="edgeStyle=orthogonalEdgeStyle;rounded=0;orthogonalLoop=1;jettySize=auto;html=1;exitX=0.5;exitY=1;exitDx=0;exitDy=0;" edge="1" parent="1" source="L7a83B9xqDgA09aWqaU--9" target="L7a83B9xqDgA09aWqaU--12">
          <mxGeometry relative="1" as="geometry" />
        </mxCell>
        <mxCell id="L7a83B9xqDgA09aWqaU--9" value="Start mapping from check point" style="rounded=1;whiteSpace=wrap;html=1;" vertex="1" parent="1">
          <mxGeometry x="1080" y="1010" width="120" height="60" as="geometry" />
        </mxCell>
        <mxCell id="L7a83B9xqDgA09aWqaU--24" style="edgeStyle=orthogonalEdgeStyle;rounded=0;orthogonalLoop=1;jettySize=auto;html=1;exitX=0.5;exitY=1;exitDx=0;exitDy=0;entryX=0.5;entryY=0;entryDx=0;entryDy=0;" edge="1" parent="1" source="L7a83B9xqDgA09aWqaU--10" target="L7a83B9xqDgA09aWqaU--14">
          <mxGeometry relative="1" as="geometry" />
        </mxCell>
        <mxCell id="L7a83B9xqDgA09aWqaU--10" value="Request current position from GPS module" style="rounded=1;whiteSpace=wrap;html=1;" vertex="1" parent="1">
          <mxGeometry x="1070" y="1210" width="140" height="60" as="geometry" />
        </mxCell>
        <mxCell id="L7a83B9xqDgA09aWqaU--26" style="edgeStyle=orthogonalEdgeStyle;rounded=0;orthogonalLoop=1;jettySize=auto;html=1;exitX=1;exitY=0.5;exitDx=0;exitDy=0;entryX=1;entryY=0.5;entryDx=0;entryDy=0;" edge="1" parent="1" source="L7a83B9xqDgA09aWqaU--11" target="L7a83B9xqDgA09aWqaU--5">
          <mxGeometry relative="1" as="geometry">
            <Array as="points">
              <mxPoint x="1500" y="940" />
              <mxPoint x="1500" y="840" />
            </Array>
          </mxGeometry>
        </mxCell>
        <mxCell id="L7a83B9xqDgA09aWqaU--11" value="Receive data" style="rounded=1;whiteSpace=wrap;html=1;" vertex="1" parent="1">
          <mxGeometry x="1315" y="910" width="120" height="60" as="geometry" />
        </mxCell>
        <mxCell id="L7a83B9xqDgA09aWqaU--23" style="edgeStyle=orthogonalEdgeStyle;rounded=0;orthogonalLoop=1;jettySize=auto;html=1;exitX=0.5;exitY=1;exitDx=0;exitDy=0;entryX=0.5;entryY=0;entryDx=0;entryDy=0;" edge="1" parent="1" source="L7a83B9xqDgA09aWqaU--12" target="L7a83B9xqDgA09aWqaU--10">
          <mxGeometry relative="1" as="geometry" />
        </mxCell>
        <mxCell id="L7a83B9xqDgA09aWqaU--12" value="Start PID and Stanley controller" style="rounded=1;whiteSpace=wrap;html=1;" vertex="1" parent="1">
          <mxGeometry x="1080" y="1110" width="120" height="60" as="geometry" />
        </mxCell>
        <mxCell id="L7a83B9xqDgA09aWqaU--27" style="edgeStyle=orthogonalEdgeStyle;rounded=0;orthogonalLoop=1;jettySize=auto;html=1;exitX=1;exitY=0.5;exitDx=0;exitDy=0;entryX=1;entryY=0.5;entryDx=0;entryDy=0;" edge="1" parent="1" source="L7a83B9xqDgA09aWqaU--14" target="L7a83B9xqDgA09aWqaU--10">
          <mxGeometry relative="1" as="geometry">
            <Array as="points">
              <mxPoint x="1290" y="1340" />
              <mxPoint x="1290" y="1240" />
            </Array>
          </mxGeometry>
        </mxCell>
        <mxCell id="L7a83B9xqDgA09aWqaU--30" style="edgeStyle=orthogonalEdgeStyle;rounded=0;orthogonalLoop=1;jettySize=auto;html=1;exitX=0;exitY=0.5;exitDx=0;exitDy=0;entryX=0;entryY=0.5;entryDx=0;entryDy=0;" edge="1" parent="1" source="L7a83B9xqDgA09aWqaU--14" target="L7a83B9xqDgA09aWqaU--8">
          <mxGeometry relative="1" as="geometry" />
        </mxCell>
        <mxCell id="L7a83B9xqDgA09aWqaU--14" value="Arrive at checkpoint" style="rhombus;whiteSpace=wrap;html=1;" vertex="1" parent="1">
          <mxGeometry x="1045" y="1300" width="190" height="80" as="geometry" />
        </mxCell>
        <mxCell id="L7a83B9xqDgA09aWqaU--31" value="False" style="text;html=1;strokeColor=none;fillColor=none;align=center;verticalAlign=middle;whiteSpace=wrap;rounded=0;" vertex="1" parent="1">
          <mxGeometry x="1180" y="910" width="60" height="30" as="geometry" />
        </mxCell>
        <mxCell id="L7a83B9xqDgA09aWqaU--33" value="True" style="text;html=1;strokeColor=none;fillColor=none;align=center;verticalAlign=middle;whiteSpace=wrap;rounded=0;" vertex="1" parent="1">
          <mxGeometry x="1140" y="970" width="60" height="30" as="geometry" />
        </mxCell>
      </root>
    </mxGraphModel>
  </diagram>
</mxfile>
